HIERARCHY
ROOT Hips
{
	OFFSET 0.00000 0.00000 0.00000
	CHANNELS 6 Xposition Yposition Zposition Yrotation Zrotation Xrotation 
	JOINT Lumbar
	{
		OFFSET 0 0 0
		CHANNELS 3 Zrotation Xrotation Yrotation
		JOINT Neck
		{
			OFFSET 0.00 0.2701 0.00
			CHANNELS 3 Zrotation Xrotation Yrotation
			End Site
			{
				OFFSET 0.00 0.1379 0.00
			}
		}
		JOINT RightShoulder
		{
			OFFSET 0.0119 0.2289 0.1181
			CHANNELS 3 Zrotation Xrotation Yrotation
			JOINT RightElbow
			{
				OFFSET 0.00 -0.1475 0.00
				CHANNELS 2 Zrotation Yrotation
				JOINT RightWrist
				{
					OFFSET 0.00 -0.1605 0.00
					CHANNELS 2 Zrotation Xrotation
					End Site
					{
						OFFSET 0.0040 -0.1068 0.0006
					}
				}
			}
		}
		JOINT LeftShoulder
		{
			OFFSET 0.0119 0.2289 -0.1181
			CHANNELS 3 Zrotation Xrotation Yrotation
			JOINT LeftElbow
			{
				OFFSET 0.00 -0.1475 0.00
				CHANNELS 2 Zrotation Yrotation
				JOINT LeftWrist
				{
					OFFSET 0.00 -0.1605 0.00
					CHANNELS 2 Zrotation Xrotation
					End Site
					{
						OFFSET 0.0040 -0.1068 -0.0006
					}
				}
			}
		}
	}
	JOINT RightHip
	{
		OFFSET 0.0316 -0.0424 0.0458
		CHANNELS 3 Zrotation Xrotation Yrotation
		JOINT RightKnee
		{
			OFFSET 0.00 -0.2438 0.00
			CHANNELS 1 Zrotation
			JOINT RightAnkle
			{
				OFFSET 0.00 -0.2449 0.00
				CHANNELS 3 Zrotation Xrotation Yrotation
				End Site
				{
					OFFSET 0.1237 -0.0542 0.0051
				}
			}
		}
	}
	JOINT LeftHip
	{
		OFFSET 0.0316 -0.0424 -0.0458
		CHANNELS 3 Zrotation Xrotation Yrotation
		JOINT LeftKnee
		{
			OFFSET 0.00 -0.2438 0.00
			CHANNELS 1 Zrotation
			JOINT LeftAnkle
			{
				OFFSET 0.00 -0.2449 0.00
				CHANNELS 3 Zrotation Xrotation Yrotation
				End Site
				{
					OFFSET 0.1237 -0.0542 -0.0051
				}
			}
		}
	}
}
MOTION
Frames: 14
Frame Time: 0.02
-0.01255 0.59442 0.80862 724.69616 0 -6.94227 -1.69113 -0.44757 -8.96554 -27.59962 7.70647 5.05379 31.14709 -37.55479 50.54506 61.96007 81.32258 -8.38886 -2.88371 27.46499 11.08935 -7.51962 13.70839 -80.18824 -15.30636 2.58492 12.48517 6.00085 7.55268 -17.88903 -5.04174 -1.26813 1.49145 3.56408 3.72319 -16.27896 -32.62012 12.34257 -1.53059 -3.56917
-0.0086 0.59505 0.81232 726.13728 0 -7.01244 -1.89509 -0.39799 -8.47495 -27.53825 7.31578 4.83179 30.14758 -38.2832 49.4455 66.31745 81.24696 -9.889 -2.89381 27.25634 11.77497 -7.1904 13.61526 -79.66342 -15.166 2.39385 11.5816 6.18296 6.40584 -17.25558 -4.90407 -1.28485 1.34502 4.98231 4.12877 -16.13124 -35.08129 11.42599 -1.69881 -4.45948
-0.0051 0.59571 0.8158 727.67573 0 -7.07607 -2.17576 -0.31962 -8.36751 -28.05107 6.97907 4.56983 29.93176 -38.7176 47.96465 71.32589 81.17849 -11.14984 -2.83436 27.4043 12.4107 -6.74681 13.79117 -79.48517 -14.94663 2.24157 10.58898 6.32189 5.1462 -16.38526 -4.81982 -1.2962 1.25879 6.629 4.53631 -15.78906 -37.70808 10.30595 -1.77124 -5.4052
-0.00143 0.59636 0.81935 729.15935 0 -7.1367 -2.41927 -0.26135 -8.0584 -28.2674 6.624 4.33494 29.32859 -39.29409 46.64016 76.03975 81.0597 -12.4886 -2.79455 27.37723 13.05034 -6.38993 13.8442 -79.14992 -14.76859 2.0811 9.64041 6.47762 3.95006 -15.62343 -4.71124 -1.31043 1.13963 8.14744 4.93894 -15.49999 -40.20917 9.30522 -1.8736 -6.26931
0.00235 0.59702 0.82302 730.68696 0 -7.22358 -2.67313 -0.17288 -7.83459 -28.59774 6.23701 4.06259 28.79706 -39.85797 45.38726 80.79682 81.13256 -14.0188 -2.80236 27.38911 13.77442 -5.92516 13.90193 -78.8089 -14.57914 1.88127 8.67267 6.64585 2.69653 -14.85759 -4.59449 -1.32333 1.03702 9.77772 5.36 -15.35344 -42.94016 8.18454 -2.03543 -7.37316
0.00582 0.59766 0.82638 732.14873 0 -7.25395 -2.9235 -0.14047 -7.53817 -28.84124 5.93125 3.85847 28.32898 -40.36846 43.89626 85.59424 80.81769 -15.06073 -2.70277 27.41104 14.30871 -5.6441 14.01357 -78.56486 -14.39078 1.77212 7.72583 6.77764 1.53693 -14.04546 -4.50983 -1.3379 0.91509 11.22396 5.74276 -14.86847 -45.21705 7.26765 -2.05068 -7.99276
0.00857 0.59828 0.82898 733.37573 0 -7.12848 -3.14439 -0.27277 -6.92089 -28.69964 5.84096 3.85567 27.80181 -40.81432 41.82126 90.4112 79.33643 -14.92758 -2.23289 27.3685 14.33118 -5.88505 14.2005 -78.48834 -14.21862 1.90812 6.85171 6.81853 0.67703 -13.14582 -4.51127 -1.35373 0.74737 12.1306 6.01687 -13.46888 -46.2979 6.9667 -1.67471 -7.23074
0.01102 0.59888 0.83125 734.53843 0 -6.94648 -3.35923 -0.46205 -6.22637 -28.45691 5.83083 3.92241 27.32726 -41.21123 39.52365 95.2268 77.47753 -14.28443 -1.67205 27.32703 14.16332 -6.31122 14.4333 -78.50053 -14.04964 2.13326 6.00352 6.8243 -0.08582 -12.21098 -4.54257 -1.37217 0.55517 12.83859 6.25249 -11.74081 -46.89622 6.87815 -1.15622 -5.98515
0.0136 0.59948 0.83364 735.74923 0 -6.79106 -3.57746 -0.62355 -5.58873 -28.26857 5.78175 3.95513 26.86476 -41.62046 37.34015 99.99385 75.85879 -13.79006 -1.21345 27.29035 14.08217 -6.65605 14.64998 -78.48272 -13.8816 2.31476 5.14825 6.84657 -0.90053 -11.30359 -4.55454 -1.3923 0.36094 13.62063 6.50717 -10.18229 -47.65024 6.69112 -0.70873 -4.9799
0.01622 0.60013 0.83616 736.88314 0 -6.63154 -3.79565 -0.79213 -4.87191 -28.06357 5.74424 3.99629 26.27735 -42.06244 35.08701 104.99554 73.96975 -13.63133 -0.50138 27.24298 13.99969 -6.98724 14.85673 -78.43391 -13.70125 2.51073 4.26961 6.86503 -1.6867 -10.33931 -4.59233 -1.40003 0.22449 14.4795 6.75564 -8.53276 -48.68002 6.50527 -0.2306 -3.88759
0.01869 0.60067 0.83833 738.1614 0 -6.46738 -4.01149 -0.95968 -4.29691 -27.86249 5.70202 4.03737 25.95186 -42.42745 32.93317 109.49507 72.53037 -12.66453 -0.28903 27.21427 13.8739 -7.39016 15.09081 -78.46559 -13.54794 2.69736 3.44744 6.88368 -2.50757 -9.48861 -4.58302 -1.43437 -0.03926 15.12786 7.00748 -6.99554 -49.01695 6.3699 0.21502 -2.86378
0.02083 0.60094 0.83967 739.84685 0 -6.30278 -4.22188 -1.11216 -4.13062 -27.69067 5.61838 4.05759 26.3423 -42.59989 31.0928 112.63921 72.62942 -9.51108 -1.54429 27.22911 13.68821 -7.96198 15.39382 -78.70215 -13.47121 2.83491 2.7717 6.91121 -3.44955 -8.95838 -4.43413 -1.54083 -0.64417 15.24466 7.28123 -5.86472 -47.57208 6.325 0.54721 -2.12253
0.02282 0.60111 0.84067 741.68022 0 -6.13581 -4.42975 -1.2614 -4.10807 -27.52476 5.52857 4.07628 26.98986 -42.69649 29.36592 115.26749 73.15768 -5.57849 -3.29405 27.26217 13.46351 -8.59699 15.72038 -79.01419 -13.42134 2.96003 2.15302 6.94038 -4.42931 -8.54526 -4.23695 -1.67409 -1.37673 15.15506 7.55894 -4.85597 -45.44376 6.32409 0.83949 -1.47053
0.02487 0.60133 0.84179 743.45054 0 -5.97081 -4.6387 -1.41123 -4.01925 -27.35742 5.44721 4.09817 27.5121 -42.82398 27.59752 118.10992 73.35299 -2.05558 -4.77445 27.29047 13.24798 -9.193 16.03187 -79.28702 -13.35788 3.09167 1.51069 6.96922 -5.3897 -8.08082 -4.06314 -1.7957 -2.05487 15.15804 7.83296 -3.78229 -43.61813 6.30208 1.14186 -0.79463
